<?xml version="1.0" encoding="utf-8"?>
<!-- Generator: Adobe Illustrator 15.0.0, SVG Export Plug-In  -->
<!DOCTYPE svg PUBLIC "-//W3C//DTD SVG 1.1//EN" "http://www.w3.org/Graphics/SVG/1.1/DTD/svg11.dtd" [
	<!ENTITY ns_flows "http://ns.adobe.com/Flows/1.0/">
]>
<svg version="1.1"
	 xmlns="http://www.w3.org/2000/svg" xmlns:xlink="http://www.w3.org/1999/xlink" xmlns:a="http://ns.adobe.com/AdobeSVGViewerExtensions/3.0/"
	 x="0px" y="0px" width="125px" height="125px" viewBox="0 0 125 125" enable-background="new 0 0 125 125" xml:space="preserve">
<defs>
</defs>
<path fill-rule="evenodd" clip-rule="evenodd" fill="#6A9ACB" d="M92.548,46.448c-0.912,0.566-2.113,0.285-2.678-0.625
	c-0.566-0.908-0.285-2.112,0.625-2.676l31.152-19.488c0.912-0.565,2.111-0.285,2.678,0.627c0.199,0.32,0.293,0.674,0.293,1.025
	h0.004v74.016c0,0.729-0.404,1.367-1.002,1.699L88.692,124.31c-0.578,0.385-1.295,0.416-1.885,0.145v0.004l-49.639-22.911
	L3.024,124.31c-0.891,0.596-2.104,0.358-2.697-0.537c-0.257-0.385-0.355-0.824-0.32-1.252L0.03,49.198
	c0-0.709,0.385-1.332,0.954-1.668l-0.003-0.004l27.23-16.09c0.922-0.547,2.115-0.242,2.662,0.682s0.237,2.115-0.682,2.662
	L3.909,50.307l-0.023,68.75l32.023-21.351l0.004,0.005c0.543-0.365,1.256-0.44,1.893-0.151l49.643,22.912l33.281-22.184V28.825
	L92.548,46.448z"/>
<path fill-rule="evenodd" clip-rule="evenodd" fill="#6A9ACB" d="M62.308,0c7.523,0,14.342,3.054,19.273,7.987l0.004,0.004
	l0.008-0.004c4.93,4.929,7.982,11.75,7.982,19.282c0,7.631-4.262,16.696-9.658,25.225c-5.309,8.396-11.676,16.244-16.105,21.652
	c-0.682,0.832-1.909,0.955-2.736,0.274c-0.15-0.12-0.273-0.259-0.378-0.409c-4.448-5.431-10.774-13.249-16.013-21.529
	c-5.389-8.529-9.646-17.59-9.646-25.213c0-7.531,3.053-14.353,7.986-19.282C47.956,3.054,54.776,0,62.308,0 M78.839,10.736
	c-4.23-4.227-10.074-6.842-16.531-6.842c-6.455,0-12.299,2.619-16.53,6.846c-4.228,4.228-6.843,10.076-6.843,16.529
	c0,6.779,3.986,15.151,9.037,23.146c4.605,7.277,10.088,14.218,14.33,19.428c4.252-5.221,9.756-12.182,14.332-19.421
	c5.055-7.987,9.049-16.37,9.049-23.153c0-6.453-2.619-12.301-6.848-16.529L78.839,10.736z"/>
<path fill-rule="evenodd" clip-rule="evenodd" fill="#6A9ACB" d="M62.308,15.582c3.225,0,6.152,1.312,8.264,3.423v0.008
	c2.111,2.115,3.424,5.039,3.424,8.257c0,3.22-1.313,6.14-3.424,8.256l-0.008,0.007c-2.115,2.113-5.039,3.424-8.256,3.424
	c-3.225,0-6.154-1.311-8.266-3.424c-2.111-2.111-3.424-5.039-3.424-8.263c0-3.222,1.313-6.142,3.424-8.257v-0.008
	C56.153,16.894,59.083,15.582,62.308,15.582 M67.821,21.755l-0.008,0.004c-1.406-1.407-3.355-2.282-5.506-2.282
	c-2.152,0-4.102,0.875-5.512,2.282l-0.004-0.004c-1.406,1.41-2.277,3.358-2.277,5.515c0,2.151,0.875,4.104,2.281,5.511
	c1.41,1.407,3.359,2.282,5.512,2.282c2.15,0,4.096-0.872,5.506-2.274l0.012-0.008c1.402-1.41,2.27-3.359,2.27-5.511
	S69.224,23.165,67.821,21.755"/>
<path fill-rule="evenodd" clip-rule="evenodd" fill="#6A9ACB" d="M89.56,122.69c0,1.07-0.867,1.941-1.938,1.941
	c-1.068,0-1.939-0.871-1.939-1.941l0.008-70.108c0-1.071,0.867-1.938,1.938-1.938c1.068,0,1.939,0.867,1.939,1.938L89.56,122.69z"/>
<path fill-rule="evenodd" clip-rule="evenodd" fill="#6A9ACB" d="M38.917,98.476c0,1.07-0.873,1.938-1.937,1.938
	c-1.071,0-1.942-0.867-1.942-1.938l0.012-45.895c0-1.07,0.871-1.938,1.941-1.938c1.066,0,1.938,0.867,1.938,1.938L38.917,98.476z"/>
</svg>
