<?xml version="1.0" encoding="utf-8"?>
<!-- Generator: Adobe Illustrator 15.0.0, SVG Export Plug-In  -->
<!DOCTYPE svg PUBLIC "-//W3C//DTD SVG 1.1//EN" "http://www.w3.org/Graphics/SVG/1.1/DTD/svg11.dtd" [
	<!ENTITY ns_flows "http://ns.adobe.com/Flows/1.0/">
]>
<svg version="1.1"
	 xmlns="http://www.w3.org/2000/svg" xmlns:xlink="http://www.w3.org/1999/xlink" xmlns:a="http://ns.adobe.com/AdobeSVGViewerExtensions/3.0/"
	 x="0px" y="0px" width="32px" height="32px" viewBox="0 0.006 32 32" enable-background="new 0 0.006 32 32" xml:space="preserve">
<defs>
</defs>
<path fill="#FFFFFF" d="M16,0C7.164,0,0,7.164,0,16c0,8.838,7.164,16,16,16c8.837,0,16-7.162,16-16C32,7.164,24.837,0,16,0
	 M19.428,16.006h-2.242V24h-3.322v-7.994h-1.581v-2.824h1.581v-1.828c0-1.309,0.621-3.354,3.352-3.354l2.461,0.01v2.742h-1.786
	c-0.291,0-0.705,0.145-0.705,0.77v1.66h2.533L19.428,16.006z"/>
</svg>
