<?xml version="1.0" encoding="utf-8"?>
<!-- Generator: Adobe Illustrator 15.0.0, SVG Export Plug-In  -->
<!DOCTYPE svg PUBLIC "-//W3C//DTD SVG 1.1//EN" "http://www.w3.org/Graphics/SVG/1.1/DTD/svg11.dtd" [
	<!ENTITY ns_flows "http://ns.adobe.com/Flows/1.0/">
]>
<svg version="1.1"
	 xmlns="http://www.w3.org/2000/svg" xmlns:xlink="http://www.w3.org/1999/xlink" xmlns:a="http://ns.adobe.com/AdobeSVGViewerExtensions/3.0/"
	 x="0px" y="0px" width="33px" height="33px" viewBox="0 0 33 33" enable-background="new 0 0 33 33" xml:space="preserve">
<defs>
</defs>
<path fill="#FFFFFF" d="M20.535,16.663l0.016-0.016c0.241-0.242,0.393-0.575,0.393-0.941V8.674c0-0.366-0.151-0.699-0.393-0.941
	c-0.242-0.24-0.578-0.392-0.941-0.392H8.027c-0.36,0-0.688,0.144-0.928,0.376L7.085,7.732C6.844,7.975,6.693,8.308,6.693,8.674
	v7.032c0,0.366,0.15,0.699,0.392,0.941c0.239,0.24,0.569,0.39,0.935,0.392h0.008c0.176,0,0.32,0.144,0.32,0.322v0.988l1.523-1.219
	c0.057-0.057,0.137-0.092,0.223-0.092h9.516C19.967,17.039,20.295,16.896,20.535,16.663z M15.885,13.773H8.854
	c-0.176,0-0.318-0.145-0.318-0.32c0-0.178,0.143-0.322,0.318-0.322h7.031c0.178,0,0.322,0.145,0.322,0.322
	C16.207,13.629,16.063,13.773,15.885,13.773z M18.781,11.797H8.854c-0.176,0-0.318-0.144-0.318-0.32
	c0-0.176,0.143-0.321,0.318-0.321h9.928c0.176,0,0.32,0.146,0.32,0.321C19.102,11.653,18.957,11.797,18.781,11.797z M18.781,9.822
	H8.854c-0.176,0-0.318-0.143-0.318-0.319c0-0.179,0.143-0.321,0.318-0.321h9.928c0.176,0,0.32,0.143,0.32,0.321
	C19.102,9.68,18.957,9.822,18.781,9.822z"/>
<path fill="#FFFFFF" d="M20.98,17.121l-0.43-0.021C20.669,17.219,20.855,17.225,20.98,17.121z"/>
<path fill="#FFFFFF" d="M16.299,0C7.297,0,0,7.297,0,16.299S7.297,32.6,16.299,32.6s16.299-7.299,16.299-16.301S25.301,0,16.299,0z
	 M22.504,17.039h1.24c0.178,0,0.32,0.145,0.32,0.322c0,0.176-0.143,0.319-0.32,0.319h-1.24c-0.178,0-0.32-0.144-0.32-0.319
	C22.184,17.184,22.326,17.039,22.504,17.039z M13.818,21.632c-0.178,0-0.322-0.145-0.322-0.321s0.145-0.32,0.322-0.32h9.926
	c0.178,0,0.32,0.144,0.32,0.32s-0.143,0.321-0.32,0.321H13.818z M21.17,23.285c0,0.178-0.145,0.32-0.322,0.32h-7.029
	c-0.178,0-0.322-0.143-0.322-0.32c0-0.176,0.145-0.32,0.322-0.32h7.029C21.025,22.965,21.17,23.109,21.17,23.285z M23.744,19.656
	h-9.926c-0.178,0-0.322-0.145-0.322-0.321s0.145-0.319,0.322-0.319h9.926c0.178,0,0.32,0.143,0.32,0.319
	S23.922,19.656,23.744,19.656z M8.227,19.264c-0.137,0.11-0.34,0.086-0.449-0.049C7.73,19.154,7.71,19.084,7.71,19.016H7.708v-1.362
	c-0.416-0.067-0.791-0.267-1.075-0.554c-0.359-0.357-0.58-0.851-0.58-1.394V8.674c0-0.543,0.221-1.037,0.58-1.395l0.021-0.02
	C7.012,6.914,7.496,6.7,8.027,6.7h11.582c0.543,0,1.037,0.223,1.395,0.579c0.357,0.357,0.581,0.852,0.581,1.395v7.032
	c0,0.543-0.224,1.036-0.581,1.394l-0.023,0.021c-0.354,0.346-0.842,0.56-1.371,0.56h-9.404L8.227,19.264z M26.547,23.563
	c0,0.543-0.223,1.04-0.58,1.396v-0.001l-0.002,0.001c-0.285,0.286-0.66,0.484-1.074,0.555v1.359c0,0.07-0.023,0.141-0.07,0.199
	c-0.109,0.138-0.313,0.159-0.447,0.05l-1.979-1.582H12.99c-0.531,0-1.016-0.216-1.373-0.56l-0.023-0.021
	c-0.355-0.355-0.578-0.853-0.578-1.396v-4.55c0-0.175,0.145-0.32,0.32-0.32c0.178,0,0.32,0.146,0.32,0.32v4.55
	c0,0.366,0.15,0.701,0.393,0.943l0.014,0.015c0.24,0.231,0.568,0.377,0.928,0.377h9.514c0.088,0,0.166,0.035,0.225,0.092l1.523,1.22
	v-0.991c0-0.177,0.143-0.318,0.318-0.318v-0.002c0.367,0,0.701-0.15,0.943-0.392c0.24-0.242,0.391-0.577,0.391-0.943v-6.616
	c0-0.366-0.15-0.7-0.391-0.942l-0.016-0.016c-0.24-0.231-0.568-0.376-0.928-0.376h-1.652c-0.178,0-0.32-0.144-0.32-0.321
	c0-0.177,0.143-0.32,0.32-0.32h1.652c0.533,0,1.018,0.214,1.375,0.56l0.021,0.021c0.357,0.356,0.58,0.851,0.58,1.396V23.563z"/>
</svg>
