<?xml version="1.0" encoding="utf-8"?>
<!-- Generator: Adobe Illustrator 15.0.0, SVG Export Plug-In  -->
<!DOCTYPE svg PUBLIC "-//W3C//DTD SVG 1.1//EN" "http://www.w3.org/Graphics/SVG/1.1/DTD/svg11.dtd" [
	<!ENTITY ns_flows "http://ns.adobe.com/Flows/1.0/">
]>
<svg version="1.1"
	 xmlns="http://www.w3.org/2000/svg" xmlns:xlink="http://www.w3.org/1999/xlink" xmlns:a="http://ns.adobe.com/AdobeSVGViewerExtensions/3.0/"
	 x="0px" y="0px" width="32px" height="32px" viewBox="0 -0.007 32 32" enable-background="new 0 -0.007 32 32"
	 xml:space="preserve">
<defs>
</defs>
<path fill="#FFFFFF" d="M16,0C7.164,0,0,7.164,0,16c0,8.838,7.164,16,16,16s16-7.162,16-16C32,7.164,24.836,0,16,0 M22.361,12.738
	c0.008,0.141,0.01,0.281,0.01,0.424c0,4.338-3.301,9.34-9.34,9.34c-1.854,0-3.578-0.543-5.031-1.475
	c0.258,0.029,0.518,0.045,0.783,0.045c1.539,0,2.953-0.523,4.076-1.404c-1.437-0.027-2.648-0.977-3.066-2.279
	c0.201,0.036,0.406,0.059,0.617,0.059c0.301,0,0.59-0.041,0.865-0.115c-1.5-0.303-2.633-1.629-2.633-3.219v-0.041
	c0.443,0.246,0.949,0.393,1.486,0.41C9.248,13.895,8.67,12.889,8.67,11.75c0-0.602,0.162-1.166,0.443-1.65
	c1.619,1.986,4.039,3.293,6.766,3.43c-0.055-0.24-0.084-0.49-0.084-0.748c0-1.813,1.469-3.281,3.283-3.281
	c0.943,0,1.797,0.398,2.395,1.035c0.748-0.146,1.45-0.42,2.086-0.797c-0.246,0.768-0.766,1.41-1.443,1.816
	c0.664-0.078,1.297-0.256,1.885-0.516C23.561,11.697,23.004,12.275,22.361,12.738"/>
</svg>
