<?xml version="1.0" encoding="utf-8"?>
<!-- Generator: Adobe Illustrator 15.0.0, SVG Export Plug-In  -->
<!DOCTYPE svg PUBLIC "-//W3C//DTD SVG 1.1//EN" "http://www.w3.org/Graphics/SVG/1.1/DTD/svg11.dtd" [
	<!ENTITY ns_flows "http://ns.adobe.com/Flows/1.0/">
]>
<svg version="1.1"
	 xmlns="http://www.w3.org/2000/svg" xmlns:xlink="http://www.w3.org/1999/xlink" xmlns:a="http://ns.adobe.com/AdobeSVGViewerExtensions/3.0/"
	 x="0px" y="0px" width="32px" height="32px" viewBox="0 0 32 32" enable-background="new 0 0 32 32" xml:space="preserve">
<defs>
</defs>
<path fill="#FFFFFF" d="M20.28,18.707c-0.129,0-0.221,0.037-0.278,0.114c-0.056,0.069-0.084,0.192-0.084,0.362v0.408h0.716v-0.408
	c0-0.17-0.029-0.293-0.085-0.362C20.494,18.744,20.403,18.707,20.28,18.707z"/>
<path fill="#FFFFFF" d="M21.077,16.129H10.922c-1.335,0-2.422,1.087-2.422,2.424v2.35c0,1.337,1.086,2.424,2.422,2.424h10.155
	c1.336,0,2.423-1.087,2.423-2.424v-2.35C23.5,17.216,22.413,16.129,21.077,16.129z M13.056,17.459h-0.945v4.691h-0.912v-4.691
	h-0.943V16.66h2.8V17.459z M15.723,22.15h-0.81v-0.445c-0.149,0.164-0.305,0.289-0.467,0.375c-0.161,0.088-0.318,0.129-0.47,0.129
	c-0.188,0-0.328-0.059-0.423-0.182c-0.094-0.122-0.142-0.299-0.142-0.541V18.1h0.81v3.107c0,0.096,0.017,0.164,0.049,0.207
	c0.036,0.045,0.091,0.064,0.166,0.064c0.059,0,0.135-0.027,0.226-0.084c0.092-0.059,0.175-0.131,0.251-0.219V18.1h0.81V22.15z
	 M18.659,21.314c0,0.285-0.063,0.504-0.19,0.657c-0.126,0.155-0.311,0.229-0.55,0.229c-0.159,0-0.3-0.027-0.423-0.088
	c-0.124-0.059-0.241-0.148-0.347-0.273v0.311h-0.818v-5.49h0.818v1.768c0.11-0.122,0.226-0.217,0.347-0.281
	c0.124-0.064,0.248-0.096,0.374-0.096c0.257,0,0.452,0.086,0.587,0.258c0.136,0.174,0.202,0.426,0.202,0.758V21.314z M21.467,20.223
	h-1.549v0.762c0,0.213,0.027,0.361,0.079,0.445c0.054,0.082,0.146,0.123,0.275,0.123c0.134,0,0.228-0.035,0.282-0.105
	c0.052-0.07,0.08-0.225,0.08-0.463v-0.184h0.833v0.207c0,0.416-0.101,0.729-0.306,0.939c-0.201,0.209-0.505,0.313-0.908,0.313
	c-0.362,0-0.648-0.109-0.856-0.334c-0.207-0.221-0.313-0.527-0.313-0.918v-1.818c0-0.35,0.114-0.639,0.344-0.859
	c0.229-0.221,0.523-0.33,0.886-0.33c0.371,0,0.656,0.102,0.854,0.307c0.199,0.205,0.299,0.498,0.299,0.883V20.223z"/>
<path fill="#FFFFFF" d="M17.488,18.693c-0.058,0-0.115,0.014-0.172,0.039c-0.056,0.027-0.111,0.068-0.167,0.125v2.523
	c0.066,0.064,0.13,0.115,0.193,0.143c0.062,0.029,0.127,0.045,0.195,0.045c0.1,0,0.172-0.029,0.219-0.088
	c0.046-0.057,0.069-0.148,0.069-0.279v-2.09c0-0.14-0.027-0.242-0.085-0.313C17.681,18.729,17.596,18.693,17.488,18.693z"/>
<path fill="#FFFFFF" d="M16,0C7.164,0,0,7.164,0,16c0,8.838,7.164,16,16,16c8.837,0,16-7.162,16-16C32,7.164,24.837,0,16,0z
	 M17.93,9.762h0.91v3.42c0,0.105,0.022,0.182,0.059,0.229c0.037,0.049,0.1,0.072,0.185,0.072c0.067,0,0.153-0.031,0.255-0.094
	c0.102-0.063,0.195-0.143,0.28-0.24V9.762h0.913v4.461h-0.913v-0.494c-0.167,0.182-0.341,0.322-0.524,0.416
	c-0.182,0.094-0.357,0.145-0.528,0.145c-0.212,0-0.369-0.068-0.477-0.203c-0.106-0.131-0.16-0.33-0.16-0.595V9.762z M14.546,10.781
	c0-0.346,0.123-0.621,0.367-0.824c0.245-0.205,0.576-0.307,0.99-0.307c0.377,0,0.686,0.107,0.928,0.322
	c0.239,0.215,0.36,0.497,0.36,0.834v2.305c0,0.383-0.118,0.68-0.353,0.898c-0.237,0.217-0.563,0.326-0.977,0.326
	c-0.398,0-0.717-0.113-0.957-0.338c-0.238-0.225-0.358-0.525-0.358-0.903V10.781z M12.063,8.176l0.666,2.418h0.064l0.636-2.418
	h1.042l-1.194,3.539v2.508h-1.026v-2.396l-1.221-3.65H12.063z M24.5,20.902c0,1.888-1.536,3.424-3.423,3.424H10.922
	c-1.887,0-3.422-1.536-3.422-3.424v-2.35c0-1.888,1.535-3.424,3.422-3.424h10.155c1.887,0,3.423,1.536,3.423,3.424V20.902z"/>
<path fill="#FFFFFF" d="M15.858,13.563c0.124,0,0.222-0.033,0.294-0.102c0.073-0.068,0.11-0.164,0.11-0.283v-2.429
	c0-0.099-0.037-0.177-0.111-0.237c-0.074-0.061-0.172-0.09-0.293-0.09c-0.11,0-0.201,0.029-0.271,0.09
	c-0.069,0.061-0.104,0.139-0.104,0.237v2.429c0,0.123,0.033,0.217,0.098,0.283C15.646,13.531,15.738,13.563,15.858,13.563z"/>
</svg>
