<?xml version="1.0" encoding="utf-8"?>
<!-- Generator: Adobe Illustrator 15.0.0, SVG Export Plug-In  -->
<!DOCTYPE svg PUBLIC "-//W3C//DTD SVG 1.1//EN" "http://www.w3.org/Graphics/SVG/1.1/DTD/svg11.dtd" [
	<!ENTITY ns_flows "http://ns.adobe.com/Flows/1.0/">
]>
<svg version="1.1"
	 xmlns="http://www.w3.org/2000/svg" xmlns:xlink="http://www.w3.org/1999/xlink" xmlns:a="http://ns.adobe.com/AdobeSVGViewerExtensions/3.0/"
	 x="0px" y="0px" width="125px" height="125px" viewBox="0 0 125 125" enable-background="new 0 0 125 125" xml:space="preserve">
<defs>
</defs>
<path fill-rule="evenodd" clip-rule="evenodd" fill="#6A9ACB" d="M9.791,74.41c-1.076,0-1.948-0.877-1.948-1.952
	c0-1.073,0.872-1.948,1.948-1.948l9.655,0.015l16.278-18.92c0.701-0.82,1.932-0.916,2.753-0.215c0.127,0.112,0.243,0.235,0.335,0.37
	l14.142,17.672l29.793-33.523c0.719-0.81,1.957-0.88,2.762-0.163l0.164,0.159l17.832,17.815l6.51-9.765
	c0.597-0.893,1.814-1.132,2.711-0.534c0.893,0.596,1.131,1.812,0.533,2.71l-7.783,11.67c-0.075,0.128-0.17,0.251-0.283,0.363
	c-0.76,0.762-1.999,0.765-2.762,0.008L84.297,40.057L54.34,73.76l-0.005-0.008c-0.075,0.084-0.155,0.16-0.243,0.228
	c-0.837,0.673-2.064,0.537-2.737-0.304L37.153,55.925L21.82,73.749v-0.005c-0.359,0.419-0.889,0.682-1.482,0.682L9.791,74.41z
	 M85.588,35.822l0.084,0.083L85.588,35.822z"/>
<path fill-rule="evenodd" clip-rule="evenodd" fill="#6A9ACB" d="M60.723,11.75c1.08,0,1.956,0.877,1.956,1.957
	s-0.876,1.961-1.956,1.961H3.917v70.541H121.43V15.667H68.545c-1.08,0-1.959-0.881-1.959-1.961s0.879-1.957,1.959-1.957h54.795
	h0.051c1.08,0,1.961,0.877,1.961,1.957v74.41v0.053c0,1.078-0.881,1.955-1.961,1.955H2.008H1.96c-1.08,0-1.96-0.877-1.96-1.955
	V13.758v-0.052c0-1.08,0.88-1.957,1.96-1.957H60.723z"/>
<path fill-rule="evenodd" clip-rule="evenodd" fill="#6A9ACB" d="M58.762,1.947C58.762,0.872,59.634,0,60.71,0
	c1.077,0,1.953,0.872,1.953,1.947l0.004,11.756c0,1.072-0.876,1.947-1.948,1.947c-1.076,0-1.953-0.875-1.953-1.947L58.762,1.947z"/>
<path fill-rule="evenodd" clip-rule="evenodd" fill="#6A9ACB" d="M58.77,95.962c0-1.075,0.873-1.949,1.949-1.949
	c1.076,0,1.952,0.874,1.952,1.949l-0.007,19.598c0,1.075-0.876,1.952-1.954,1.952c-1.076,0-1.948-0.877-1.948-1.952L58.77,95.962z"
	/>
<path fill-rule="evenodd" clip-rule="evenodd" fill="#6A9ACB" d="M31.412,95.429c0.291-1.037,1.374-1.638,2.414-1.348
	c1.036,0.295,1.639,1.379,1.344,2.42l-7.82,27.422c-0.29,1.04-1.373,1.643-2.413,1.348c-1.036-0.291-1.638-1.375-1.343-2.416
	L31.412,95.429z"/>
<path fill-rule="evenodd" clip-rule="evenodd" fill="#6A9ACB" d="M86.256,96.501c-0.293-1.041,0.309-2.125,1.348-2.42
	c1.037-0.29,2.119,0.311,2.416,1.348l7.828,27.426c0.291,1.041-0.311,2.125-1.346,2.416c-1.039,0.294-2.121-0.308-2.414-1.348
	L86.256,96.501z"/>
<path fill-rule="evenodd" clip-rule="evenodd" fill="#6A9ACB" d="M1.96,97.962c-1.08,0-1.96-0.88-1.96-1.959
	c0-1.08,0.88-1.957,1.96-1.957h121.431c1.08,0,1.961,0.877,1.961,1.957c0,1.079-0.881,1.959-1.961,1.959H1.96z"/>
</svg>
