<?xml version="1.0" encoding="utf-8"?>
<!-- Generator: Adobe Illustrator 15.0.0, SVG Export Plug-In  -->
<!DOCTYPE svg PUBLIC "-//W3C//DTD SVG 1.1//EN" "http://www.w3.org/Graphics/SVG/1.1/DTD/svg11.dtd" [
	<!ENTITY ns_flows "http://ns.adobe.com/Flows/1.0/">
]>
<svg version="1.1"
	 xmlns="http://www.w3.org/2000/svg" xmlns:xlink="http://www.w3.org/1999/xlink" xmlns:a="http://ns.adobe.com/AdobeSVGViewerExtensions/3.0/"
	 x="0px" y="0px" width="105px" height="104px" viewBox="-1.549 -0.629 105 104" enable-background="new -1.549 -0.629 105 104"
	 xml:space="preserve">
<defs>
</defs>
<path fill-rule="evenodd" clip-rule="evenodd" fill="#F9B926" d="M100.49,51.86c0-13.425-5.447-25.579-14.248-34.378
	C77.449,8.687,65.289,3.245,51.863,3.245c-13.42,0-25.58,5.442-34.373,14.237C8.695,26.281,3.248,38.435,3.248,51.86
	c0,13.426,5.44,25.581,14.242,34.38c8.793,8.803,20.953,14.24,34.373,14.24c13.426,0,25.586-5.437,34.379-14.24
	C95.043,77.441,100.49,65.286,100.49,51.86 M88.535,15.188c9.385,9.382,15.188,22.354,15.188,36.672
	c0,14.33-5.804,27.291-15.188,36.674c-9.383,9.382-22.346,15.187-36.672,15.187c-14.314,0-27.289-5.805-36.674-15.187
	C5.807,79.151,0,66.19,0,51.86c0-14.319,5.812-27.29,15.189-36.672C24.574,5.806,37.549,0,51.863,0
	C66.184,0,79.152,5.806,88.535,15.188"/>
<path fill-rule="evenodd" clip-rule="evenodd" fill="#F9B926" d="M58.695,45.036c0.629,0.628,0.629,1.654,0,2.294
	c-0.629,0.627-1.664,0.627-2.287,0c-0.621-0.624-1.338-1.087-2.08-1.399c-0.775-0.328-1.616-0.483-2.465-0.483
	c-1.637,0-3.287,0.627-4.533,1.882c-0.625,0.615-1.088,1.33-1.399,2.073c-0.323,0.775-0.483,1.615-0.483,2.457
	c0,1.643,0.629,3.29,1.883,4.54c0.623,0.623,1.332,1.095,2.066,1.399h0.016c0.767,0.319,1.615,0.475,2.451,0.475
	c1.645,0,3.287-0.623,4.545-1.874c0.623-0.631,1.658-0.631,2.287,0c0.629,0.632,0.629,1.662,0,2.294
	c-1.883,1.89-4.354,2.828-6.832,2.828c-1.248,0-2.506-0.251-3.699-0.743c-1.139-0.475-2.213-1.171-3.127-2.085
	c-1.883-1.89-2.829-4.36-2.829-6.834c0-1.246,0.245-2.504,0.733-3.695c0.479-1.143,1.182-2.214,2.096-3.129
	c1.882-1.882,4.359-2.829,6.826-2.829c1.252,0,2.518,0.244,3.703,0.735C56.714,43.418,57.787,44.122,58.695,45.036"/>
<path fill-rule="evenodd" clip-rule="evenodd" fill="#F9B926" d="M66.35,35.083c0.635-0.632,1.662-0.632,2.291,0
	c0.637,0.635,0.637,1.662,0,2.293L53.016,53.015c-0.636,0.619-1.662,0.619-2.293,0c-0.637-0.639-0.637-1.67,0-2.301L66.35,35.083z"
	/>
<path fill-rule="evenodd" clip-rule="evenodd" fill="#F9B926" d="M35.791,50.243c0.896,0,1.625,0.731,1.625,1.617
	c0,0.896-0.729,1.623-1.625,1.623H8.654c-0.886,0-1.615-0.727-1.615-1.623c0-0.886,0.729-1.617,1.615-1.617H35.791z"/>
<path fill-rule="evenodd" clip-rule="evenodd" fill="#F9B926" d="M68.654,53.482c-0.899,0-1.629-0.727-1.629-1.623
	c0-0.886,0.729-1.617,1.629-1.617h26.422c0.893,0,1.623,0.731,1.623,1.617c0,0.896-0.73,1.623-1.623,1.623H68.654z"/>
<path fill-rule="evenodd" clip-rule="evenodd" fill="#F9B926" d="M53.486,35.786c0,0.899-0.723,1.622-1.623,1.622
	c-0.891,0-1.617-0.723-1.617-1.622V8.655c0-0.895,0.727-1.618,1.617-1.618c0.9,0,1.623,0.723,1.623,1.618V35.786z"/>
<path fill-rule="evenodd" clip-rule="evenodd" fill="#F9B926" d="M50.246,68.646c0-0.895,0.728-1.622,1.617-1.622
	c0.901,0,1.623,0.727,1.623,1.622v26.42c0,0.903-0.722,1.627-1.623,1.627c-0.89,0-1.617-0.724-1.617-1.627V68.646z"/>
<path fill-rule="evenodd" clip-rule="evenodd" fill="#F9B926" d="M73.918,25.321l-1.811,1.802l-0.006,0.008h0.006l-0.498,0.503
	l-2.492,2.49v4.479h4.494l4.799-4.791h-2.877c-0.887,0-1.615-0.723-1.615-1.622v-0.04V25.321z M69.822,24.841l4.492-4.499
	c0.291-0.335,0.735-0.555,1.219-0.555c0.895,0,1.625,0.727,1.625,1.622v5.163h5.162v0.008c0.41,0,0.836,0.151,1.152,0.471
	c0.621,0.635,0.621,1.662-0.013,2.29l-7.952,7.955c-0.3,0.344-0.744,0.555-1.227,0.555h-6.739h-0.039
	c-0.902,0-1.625-0.727-1.625-1.618v-6.784c0-0.416,0.159-0.836,0.472-1.148l2.969-2.96l0.504-0.503V24.841z"/>
<path fill-rule="evenodd" clip-rule="evenodd" fill="#F9B926" d="M71.313,25.182c0.724,0.523,0.881,1.538,0.352,2.253
	c-0.518,0.723-1.531,0.874-2.253,0.355c-0.418-0.312-0.888-0.635-1.406-0.966L67.9,26.752c-0.412-0.26-0.875-0.536-1.364-0.816
	c-0.493-0.279-0.996-0.551-1.513-0.806c-0.545-0.268-1.061-0.504-1.563-0.716c-0.875-0.372-1.795-0.703-2.745-0.995
	c-0.926-0.291-1.867-0.539-2.822-0.731l-0.053-0.013c-0.875-0.163-1.452-1.014-1.286-1.893c0.175-0.876,1.021-1.446,1.896-1.287
	l0.051,0.012l0.015,0.008c1.072,0.22,2.127,0.492,3.154,0.807c1.021,0.32,2.041,0.696,3.049,1.123
	c0.61,0.256,1.193,0.524,1.737,0.795c0.562,0.276,1.126,0.576,1.681,0.888c0.479,0.275,0.995,0.583,1.525,0.927l0.086,0.051
	C70.24,24.418,70.762,24.782,71.313,25.182 M51.863,18.84c0.9,0,1.623,0.727,1.623,1.623c0,0.894-0.723,1.618-1.623,1.618
	c-1.053,0-2.068,0.052-3.023,0.143c-1.007,0.108-2,0.26-2.98,0.46c-0.955,0.192-1.909,0.444-2.844,0.735
	c-0.949,0.292-1.861,0.623-2.75,0.995c-0.875,0.368-1.742,0.795-2.584,1.251l-0.008,0.007h0.008
	c-0.836,0.448-1.658,0.956-2.465,1.496c-0.796,0.538-1.564,1.114-2.294,1.709l-0.08,0.068c-0.675,0.556-1.35,1.179-2.034,1.862
	c-0.709,0.707-1.357,1.411-1.928,2.114c-0.597,0.727-1.172,1.499-1.71,2.293c-0.543,0.804-1.047,1.623-1.499,2.454v0.004v0.008
	c-0.475,0.875-0.893,1.734-1.252,2.586c-0.378,0.886-0.709,1.801-0.999,2.748c-0.292,0.935-0.537,1.874-0.729,2.837l-0.014,0.045
	c-0.172,0.874-1.021,1.445-1.902,1.274c-0.875-0.172-1.443-1.027-1.265-1.902l0.007-0.048l0.006-0.012
	c0.211-1.067,0.49-2.122,0.809-3.141c0.318-1.027,0.689-2.049,1.113-3.049c0.438-1.025,0.895-1.989,1.379-2.888v0.004
	c0.518-0.948,1.072-1.862,1.664-2.738c0.589-0.867,1.225-1.722,1.902-2.537v0.008c0.701-0.863,1.416-1.644,2.125-2.354
	c0.69-0.696,1.452-1.382,2.279-2.074l0.068-0.052c0.814-0.675,1.668-1.314,2.537-1.902c0.875-0.591,1.789-1.147,2.744-1.662
	c0.928-0.508,1.887-0.962,2.875-1.379c1.008-0.427,2.028-0.803,3.047-1.123c1.021-0.315,2.082-0.587,3.143-0.807
	c1.087-0.22,2.195-0.391,3.313-0.503C49.654,18.9,50.775,18.84,51.863,18.84 M18.848,51.86c0-0.886,0.721-1.617,1.616-1.617
	s1.624,0.73,1.624,1.617c0,1.06,0.046,2.066,0.146,3.03c0.1,1.006,0.252,2.006,0.449,2.976c0.193,0.959,0.445,1.914,0.737,2.85
	c0.29,0.939,0.621,1.862,0.999,2.741c0.371,0.882,0.789,1.75,1.252,2.592c0.438,0.82,0.941,1.651,1.499,2.466
	c0.55,0.815,1.126,1.582,1.71,2.297c0.57,0.692,1.219,1.399,1.928,2.11l0.086,0.092c0.65,0.647,1.334,1.259,2.028,1.83v0.004v-0.004
	c0.729,0.607,1.498,1.179,2.294,1.714c0.807,0.543,1.629,1.047,2.465,1.499l0.078,0.048c0.822,0.443,1.658,0.847,2.506,1.202
	c0.889,0.372,1.801,0.711,2.75,1.007c0.935,0.287,1.889,0.532,2.844,0.732c0.98,0.2,1.974,0.351,2.98,0.451
	c0.955,0.092,1.971,0.145,3.023,0.145c0.9,0,1.623,0.73,1.623,1.621c0,0.895-0.723,1.627-1.623,1.627
	c-1.088,0-2.209-0.069-3.342-0.173c-1.117-0.116-2.226-0.291-3.313-0.503c-1.061-0.227-2.121-0.491-3.143-0.811
	c-1.019-0.316-2.039-0.695-3.047-1.119c-0.969-0.404-1.91-0.854-2.811-1.346l-0.064-0.04c-0.955-0.515-1.869-1.071-2.744-1.655
	c-0.869-0.583-1.723-1.226-2.545-1.91h0.008c-0.788-0.647-1.545-1.326-2.254-2.041l-0.094-0.081
	c-0.709-0.706-1.424-1.494-2.125-2.348c-0.689-0.832-1.328-1.691-1.902-2.542c-0.577-0.851-1.135-1.774-1.657-2.728
	c-0.504-0.928-0.961-1.895-1.386-2.882c-0.424-1.003-0.795-2.022-1.113-3.049c-0.318-1.026-0.598-2.073-0.809-3.148
	c-0.227-1.088-0.398-2.186-0.504-3.309C18.9,54.075,18.848,52.956,18.848,51.86 M58.463,84.226
	c-0.875,0.172-1.729-0.398-1.909-1.271c-0.172-0.875,0.398-1.738,1.273-1.909l0.053-0.008l0.078-0.012
	c0.929-0.192,1.856-0.432,2.751-0.712c0.961-0.304,1.883-0.635,2.751-1.007c0.847-0.354,1.716-0.779,2.597-1.25l0.092-0.048
	c0.797-0.436,1.592-0.927,2.365-1.451c0.797-0.535,1.566-1.106,2.295-1.714l0.079-0.06c0.671-0.56,1.359-1.187,2.034-1.862
	c0.709-0.719,1.366-1.418,1.936-2.114c0.584-0.711,1.153-1.478,1.703-2.293c0.549-0.815,1.055-1.638,1.504-2.461h-0.006
	c0.469-0.859,0.887-1.734,1.252-2.597c0.371-0.879,0.715-1.802,1.008-2.741c0.291-0.936,0.529-1.891,0.729-2.85
	c0.2-0.97,0.357-1.97,0.45-2.976c0.101-0.964,0.146-1.97,0.146-3.03c0-0.886,0.729-1.617,1.625-1.617s1.623,0.73,1.623,1.617
	c0,1.096-0.059,2.215-0.174,3.345c-0.111,1.123-0.283,2.221-0.503,3.309c-0.217,1.075-0.489,2.122-0.808,3.148
	c-0.319,1.027-0.697,2.046-1.115,3.049c-0.428,1.007-0.895,1.965-1.383,2.882l-0.006-0.005v0.005
	c-0.524,0.966-1.082,1.881-1.658,2.728c-0.57,0.851-1.204,1.698-1.895,2.533c-0.709,0.863-1.418,1.642-2.134,2.357
	c-0.688,0.692-1.444,1.367-2.259,2.058l-0.086,0.064c-0.824,0.685-1.671,1.319-2.545,1.91c-0.842,0.568-1.738,1.111-2.652,1.615
	l-0.08,0.04c-0.887,0.492-1.853,0.955-2.875,1.386c-1.021,0.432-2.042,0.803-3.049,1.119c-0.994,0.307-2.002,0.563-3.035,0.783
	l-0.119,0.028L58.463,84.226z M84.229,45.268c0.172,0.875-0.397,1.73-1.272,1.902c-0.875,0.171-1.731-0.4-1.903-1.274l-0.006-0.045
	l-0.02-0.088c-0.191-0.927-0.432-1.841-0.709-2.749c-0.293-0.947-0.637-1.862-1.008-2.748c-0.345-0.824,0.041-1.767,0.861-2.111
	c0.822-0.343,1.77,0.04,2.119,0.863c0.418,1,0.796,2.022,1.115,3.049c0.305,0.979,0.57,1.994,0.781,3.021l0.035,0.132L84.229,45.268
	z"/>
</svg>
