<?xml version="1.0" encoding="utf-8"?>
<!-- Generator: Adobe Illustrator 15.0.0, SVG Export Plug-In  -->
<!DOCTYPE svg PUBLIC "-//W3C//DTD SVG 1.1//EN" "http://www.w3.org/Graphics/SVG/1.1/DTD/svg11.dtd" [
	<!ENTITY ns_flows "http://ns.adobe.com/Flows/1.0/">
]>
<svg version="1.1"
	 xmlns="http://www.w3.org/2000/svg" xmlns:xlink="http://www.w3.org/1999/xlink" xmlns:a="http://ns.adobe.com/AdobeSVGViewerExtensions/3.0/"
	 x="0px" y="0px" width="128px" height="118px" viewBox="0 0 128 118" enable-background="new 0 0 128 118" xml:space="preserve">
<defs>
</defs>
<path fill-rule="evenodd" clip-rule="evenodd" fill="#6A9ACB" d="M64.19,4.012c-6.599,0-12.576,2.678-16.9,7l-0.105,0.098
	c-4.262,4.318-6.897,10.256-6.897,16.807c0,6.604,2.678,12.578,7.002,16.904c4.324,4.323,10.301,7,16.9,7
	c6.602,0,12.579-2.677,16.906-7c4.322-4.326,7-10.3,7-16.904s-2.674-12.584-6.997-16.91l-0.003,0.005
	C76.77,6.69,70.792,4.012,64.19,4.012 M44.452,8.175C49.5,3.126,56.481,0,64.19,0c7.712,0,14.694,3.126,19.744,8.175L83.93,8.179
	l0.005,0.004c5.051,5.056,8.175,12.032,8.175,19.734c0,7.709-3.126,14.693-8.175,19.741c-5.05,5.049-12.032,8.179-19.744,8.179
	c-7.709,0-14.69-3.13-19.739-8.179c-5.049-5.048-8.178-12.032-8.178-19.741c0-7.64,3.078-14.566,8.058-19.611L44.452,8.175z"/>
<path fill-rule="evenodd" clip-rule="evenodd" fill="#6A9ACB" d="M64.191,14.378c-1.592,0-3.034,0.645-4.077,1.69
	c-1.043,1.041-1.69,2.485-1.69,4.077s0.647,3.032,1.69,4.077c1.043,1.041,2.485,1.691,4.077,1.691c1.594,0,3.037-0.65,4.08-1.691
	c1.04-1.045,1.688-2.485,1.688-4.077s-0.648-3.036-1.688-4.077C67.228,15.023,65.785,14.378,64.191,14.378 M57.275,13.228
	c1.768-1.768,4.217-2.865,6.916-2.865c2.702,0,5.149,1.097,6.918,2.865c1.768,1.768,2.863,4.216,2.863,6.918
	s-1.095,5.146-2.863,6.914c-1.769,1.768-4.216,2.865-6.918,2.865c-2.699,0-5.148-1.097-6.916-2.865
	c-1.767-1.768-2.865-4.212-2.865-6.914S55.508,14.996,57.275,13.228"/>
<path fill-rule="evenodd" clip-rule="evenodd" fill="#6A9ACB" d="M54.063,34.472c-0.424,0.473-0.807,0.971-1.155,1.498
	c-0.457,0.689-0.857,1.424-1.186,2.191c1.403,1.698,3.139,3.114,5.113,4.126c2.196,1.122,4.695,1.759,7.356,1.759
	c2.661,0,5.163-0.637,7.358-1.759c1.974-1.012,3.715-2.424,5.113-4.126c-0.324-0.755-0.722-1.49-1.184-2.183l-0.077-0.123
	c-0.329-0.482-0.687-0.95-1.077-1.387c-1.209,0.856-2.531,1.563-3.931,2.094c-1.938,0.734-4.032,1.138-6.202,1.138
	c-2.167,0-4.261-0.404-6.199-1.138C56.592,36.031,55.269,35.328,54.063,34.472 M49.572,33.761c0.857-1.289,1.873-2.453,3.016-3.461
	h0.002c0.747-0.656,1.883-0.665,2.647,0.009c1.212,1.069,2.624,1.931,4.167,2.514c1.474,0.555,3.092,0.861,4.787,0.861
	c1.698,0,3.317-0.306,4.79-0.861c1.527-0.58,2.928-1.425,4.132-2.482c0.743-0.693,1.91-0.723,2.688-0.032
	c1.1,0.971,2.089,2.089,2.917,3.306l0.095,0.138c0.83,1.24,1.512,2.629,2.01,4.106h-0.002c0.196,0.591,0.118,1.265-0.273,1.804
	c-1.858,2.583-4.325,4.718-7.179,6.179c-2.76,1.421-5.884,2.221-9.178,2.221c-3.291,0-6.416-0.8-9.175-2.221
	c-2.854-1.461-5.322-3.596-7.178-6.179c-0.364-0.506-0.489-1.172-0.276-1.804C48.055,36.394,48.741,35.01,49.572,33.761"/>
<path fill-rule="evenodd" clip-rule="evenodd" fill="#6A9ACB" d="M27.917,66.2c-6.601,0-12.579,2.678-16.903,7.004
	C6.69,77.53,4.013,83.505,4.013,90.109c0,6.6,2.677,12.574,7.001,16.901c4.324,4.322,10.302,6.999,16.903,6.999
	c6.602,0,12.579-2.677,16.904-6.999c4.324-4.327,7.001-10.301,7.001-16.901c0-6.604-2.677-12.579-7.001-16.905
	C40.496,68.878,34.519,66.2,27.917,66.2 M8.176,70.363c5.049-5.049,12.031-8.175,19.741-8.175c7.71,0,14.694,3.126,19.742,8.175
	c5.049,5.053,8.175,12.032,8.175,19.746c0,7.705-3.126,14.689-8.175,19.737c-5.048,5.049-12.032,8.18-19.742,8.18
	c-7.71,0-14.692-3.131-19.741-8.18C3.127,104.798,0,97.814,0,90.109C0,82.396,3.127,75.417,8.176,70.363"/>
<path fill-rule="evenodd" clip-rule="evenodd" fill="#6A9ACB" d="M27.917,76.567c-1.592,0-3.034,0.645-4.077,1.69
	c-1.043,1.041-1.69,2.485-1.69,4.077s0.647,3.032,1.69,4.077c1.043,1.041,2.485,1.69,4.077,1.69c1.596,0,3.041-0.645,4.075-1.682
	l0.005-0.004l-0.005-0.004c1.043-1.045,1.691-2.485,1.691-4.077s-0.648-3.036-1.691-4.077l-0.101-0.111
	C30.864,77.167,29.462,76.567,27.917,76.567 M21.001,75.416c1.768-1.768,4.215-2.865,6.916-2.865c2.629,0,5.017,1.045,6.777,2.739
	l0.137,0.126c1.768,1.768,2.865,4.216,2.865,6.918s-1.097,5.146-2.865,6.914l-0.004-0.004c-1.773,1.771-4.216,2.869-6.91,2.869
	c-2.701,0-5.148-1.098-6.916-2.865c-1.767-1.768-2.865-4.212-2.865-6.914S19.234,77.184,21.001,75.416"/>
<path fill-rule="evenodd" clip-rule="evenodd" fill="#6A9ACB" d="M17.785,96.655c-0.418,0.473-0.803,0.975-1.153,1.502l-0.004,0.009
	h0.004c-0.461,0.693-0.861,1.423-1.186,2.183c1.399,1.702,3.139,3.114,5.113,4.126c2.193,1.122,4.697,1.764,7.358,1.764
	c2.661,0,5.163-0.642,7.358-1.764c1.972-1.012,3.715-2.424,5.113-4.126c-0.33-0.767-0.731-1.502-1.188-2.196
	c-0.348-0.526-0.734-1.025-1.153-1.498c-1.21,0.857-2.532,1.567-3.932,2.098c-1.936,0.731-4.031,1.134-6.198,1.134
	c-2.167,0-4.263-0.403-6.201-1.134C20.316,98.223,18.993,97.513,17.785,96.655 M13.3,95.941c0.837-1.257,1.845-2.412,2.974-3.416
	c0.742-0.694,1.907-0.714,2.685-0.028c1.212,1.068,2.628,1.929,4.169,2.509c1.476,0.559,3.094,0.866,4.789,0.866
	c1.696,0,3.313-0.307,4.786-0.866c1.527-0.576,2.928-1.419,4.132-2.477c0.745-0.694,1.91-0.723,2.688-0.032
	c1.147,1.007,2.165,2.174,3.014,3.448c0.83,1.257,1.516,2.637,2.008,4.102h-0.002c0.198,0.592,0.118,1.261-0.271,1.804
	c-1.858,2.583-4.323,4.718-7.177,6.183c-2.762,1.417-5.884,2.217-9.178,2.217c-3.293,0-6.418-0.8-9.179-2.217
	c-2.855-1.465-5.318-3.6-7.177-6.183c-0.363-0.507-0.488-1.172-0.276-1.804c0.498-1.478,1.182-2.865,2.011-4.11L13.3,95.941z"/>
<path fill-rule="evenodd" clip-rule="evenodd" fill="#6A9ACB" d="M100.471,66.2c-6.602,0-12.582,2.678-16.903,7.004
	c-4.326,4.326-7.004,10.301-7.004,16.905c0,6.6,2.678,12.574,7.004,16.901c4.321,4.322,10.301,6.999,16.903,6.999
	c6.6,0,12.576-2.677,16.901-6.999c4.324-4.327,7.001-10.301,7.001-16.901c0-6.604-2.677-12.579-7.001-16.905
	C113.047,68.878,107.071,66.2,100.471,66.2 M80.727,70.363c5.051-5.049,12.031-8.175,19.744-8.175
	c7.707,0,14.691,3.126,19.739,8.175c5.049,5.053,8.177,12.032,8.177,19.746c0,7.705-3.128,14.689-8.177,19.737
	c-5.048,5.049-12.032,8.18-19.739,8.18c-7.713,0-14.693-3.131-19.744-8.18c-5.049-5.048-8.175-12.032-8.175-19.737
	C72.552,82.396,75.678,75.417,80.727,70.363"/>
<path fill-rule="evenodd" clip-rule="evenodd" fill="#6A9ACB" d="M100.471,76.567c-1.594,0-3.037,0.645-4.08,1.69
	c-1.043,1.041-1.69,2.485-1.69,4.077s0.647,3.032,1.69,4.077c1.043,1.041,2.486,1.69,4.08,1.69c1.596,0,3.038-0.645,4.072-1.682
	l0.005-0.004l-0.005-0.004c1.043-1.045,1.691-2.485,1.691-4.077s-0.648-3.036-1.691-4.077l-0.101-0.111
	C103.415,77.167,102.013,76.567,100.471,76.567 M93.553,75.416c1.769-1.768,4.216-2.865,6.918-2.865
	c2.626,0,5.014,1.045,6.774,2.739l0.137,0.126c1.768,1.768,2.865,4.216,2.865,6.918s-1.097,5.146-2.865,6.914l-0.004-0.004
	c-1.773,1.771-4.216,2.869-6.907,2.869c-2.702,0-5.149-1.098-6.918-2.865c-1.768-1.768-2.863-4.212-2.863-6.914
	S91.785,77.184,93.553,75.416"/>
<path fill-rule="evenodd" clip-rule="evenodd" fill="#6A9ACB" d="M90.338,96.655c-0.42,0.473-0.805,0.975-1.154,1.502l-0.005,0.009
	h0.005c-0.462,0.693-0.859,1.423-1.184,2.183c1.398,1.702,3.136,3.114,5.11,4.126c2.193,1.122,4.699,1.764,7.361,1.764
	c2.658,0,5.16-0.642,7.355-1.764c1.973-1.012,3.71-2.424,5.109-4.126c-0.326-0.763-0.724-1.498-1.184-2.183l-0.077-0.127
	c-0.331-0.486-0.689-0.947-1.076-1.384c-1.207,0.857-2.53,1.567-3.932,2.098c-1.936,0.731-4.031,1.134-6.195,1.134
	c-2.17,0-4.264-0.403-6.202-1.134C92.87,98.223,91.546,97.513,90.338,96.655 M85.853,95.941c0.837-1.257,1.843-2.412,2.974-3.416
	c0.74-0.694,1.908-0.714,2.685-0.028c1.212,1.068,2.626,1.929,4.169,2.509c1.474,0.559,3.092,0.866,4.79,0.866
	c1.694,0,3.31-0.307,4.783-0.866c1.527-0.576,2.928-1.419,4.132-2.477c0.745-0.694,1.91-0.723,2.689-0.032
	c1.101,0.97,2.083,2.085,2.911,3.301l0.102,0.139c0.83,1.249,1.514,2.632,2.012,4.106h-0.006c0.2,0.591,0.12,1.265-0.269,1.808
	c-1.86,2.583-4.325,4.718-7.179,6.183c-2.762,1.417-5.884,2.217-9.175,2.217c-3.294,0-6.421-0.8-9.18-2.217
	c-2.857-1.465-5.32-3.6-7.176-6.183c-0.364-0.507-0.489-1.172-0.276-1.804c0.498-1.478,1.18-2.865,2.01-4.11L85.853,95.941z"/>
<path fill-rule="evenodd" clip-rule="evenodd" fill="#6A9ACB" d="M85.366,60.168c0.551,0.955,0.225,2.18-0.73,2.734
	c-0.956,0.551-2.182,0.225-2.735-0.73l-1.267-2.176l-1.268-2.179c-0.553-0.955-0.225-2.183,0.729-2.734
	c0.955-0.552,2.183-0.225,2.734,0.731l1.269,2.174L85.366,60.168z"/>
<path fill-rule="evenodd" clip-rule="evenodd" fill="#6A9ACB" d="M61.599,92.113c-1.105,0-2.006-0.898-2.006-2.004
	c0-1.11,0.901-2.009,2.006-2.009h5.186c1.106,0,2.005,0.899,2.005,2.009c0,1.106-0.899,2.004-2.005,2.004H61.599z"/>
<path fill-rule="evenodd" clip-rule="evenodd" fill="#6A9ACB" d="M46.486,62.172c-0.551,0.955-1.779,1.281-2.734,0.73
	c-0.954-0.554-1.282-1.779-0.729-2.734l1.268-2.18l1.266-2.174c0.554-0.955,1.781-1.283,2.736-0.731
	c0.955,0.551,1.281,1.779,0.73,2.735l-1.269,2.178L46.486,62.172z"/>
</svg>
