<?xml version="1.0" encoding="utf-8"?>
<!-- Generator: Adobe Illustrator 15.0.0, SVG Export Plug-In  -->
<!DOCTYPE svg PUBLIC "-//W3C//DTD SVG 1.1//EN" "http://www.w3.org/Graphics/SVG/1.1/DTD/svg11.dtd" [
	<!ENTITY ns_flows "http://ns.adobe.com/Flows/1.0/">
]>
<svg version="1.1"
	 xmlns="http://www.w3.org/2000/svg" xmlns:xlink="http://www.w3.org/1999/xlink" xmlns:a="http://ns.adobe.com/AdobeSVGViewerExtensions/3.0/"
	 x="0px" y="0px" width="89px" height="118px" viewBox="0 0 89 118" enable-background="new 0 0 89 118" xml:space="preserve">
<defs>
</defs>
<path fill-rule="evenodd" clip-rule="evenodd" fill="#F9B926" d="M33.713,103.314c-1.018,0-1.845-0.83-1.845-1.845
	s0.827-1.844,1.845-1.844h21.42c1.016,0,1.84,0.829,1.84,1.844s-0.824,1.845-1.84,1.845H33.713z"/>
<path fill-rule="evenodd" clip-rule="evenodd" fill="#F9B926" d="M36.093,110.624c-1.021,0-1.845-0.829-1.845-1.845
	c0-1.016,0.823-1.839,1.845-1.839h16.658c1.017,0,1.845,0.823,1.845,1.839c0,1.016-0.828,1.845-1.845,1.845H36.093z"/>
<path fill-rule="evenodd" clip-rule="evenodd" fill="#F9B926" d="M42.686,85.148c0,1.012-0.82,1.84-1.832,1.84
	s-1.838-0.828-1.838-1.84c-0.006-7.757-0.229-13.556-1.299-18.924C36.658,60.921,34.756,56,31.389,49.939
	c-0.491-0.889-0.17-2.008,0.713-2.5c0.891-0.493,2.005-0.174,2.497,0.712c3.579,6.443,5.603,11.683,6.731,17.357
	C42.445,71.11,42.678,77.119,42.686,85.148"/>
<path fill-rule="evenodd" clip-rule="evenodd" fill="#F9B926" d="M49.824,85.148c0,1.012-0.821,1.84-1.834,1.84
	c-1.012,0-1.832-0.828-1.832-1.84c0.008-8.03,0.24-14.038,1.354-19.64c1.13-5.674,3.151-10.914,6.728-17.357
	c0.492-0.886,1.611-1.205,2.498-0.712c0.884,0.492,1.204,1.611,0.711,2.5C54.082,56,52.187,60.921,51.127,66.225
	C50.057,71.593,49.832,77.392,49.824,85.148"/>
<path fill-rule="evenodd" clip-rule="evenodd" fill="#F9B926" d="M32.437,50.792c-0.968-0.308-1.501-1.347-1.19-2.308
	c0.31-0.969,1.344-1.501,2.311-1.188c1.281,0.416,2.393,0.969,3.422,1.483l0.098,0.057c1.602,0.801,2.93,1.437,3.922,0.627
	l2.268-1.846c0.784-0.637,1.942-0.518,2.582,0.266c0.636,0.788,0.519,1.951-0.269,2.588l-2.267,1.845
	c-2.82,2.297-5.129,1.182-7.905-0.214l-0.086-0.038C34.419,51.61,33.443,51.121,32.437,50.792"/>
<path fill-rule="evenodd" clip-rule="evenodd" fill="#F9B926" d="M46.268,8.983c0,1.019-0.83,1.845-1.846,1.845
	s-1.845-0.827-1.845-1.845V1.845c0-1.02,0.829-1.845,1.845-1.845s1.846,0.825,1.846,1.845V8.983z"/>
<path fill-rule="evenodd" clip-rule="evenodd" fill="#F9B926" d="M55.283,47.296c0.967-0.313,2.003,0.219,2.313,1.188
	c0.308,0.961-0.223,2-1.188,2.308c-1.008,0.329-1.986,0.818-2.887,1.271l-0.088,0.037c-2.771,1.397-5.082,2.512-7.906,0.215
	l-2.262-1.845c-0.789-0.637-0.904-1.8-0.27-2.589c0.641-0.783,1.798-0.902,2.583-0.265l2.268,1.846
	c0.989,0.81,2.319,0.174,3.922-0.627l0.099-0.057C52.893,48.265,54,47.712,55.283,47.296"/>
<path fill-rule="evenodd" clip-rule="evenodd" fill="#F9B926" d="M67.606,28.645c5.931,5.93,9.601,14.128,9.601,23.182
	c0,3.538-0.565,6.962-1.607,10.163c-1.08,3.319-2.681,6.405-4.697,9.163c-3.383,4.628-6.129,7.665-8.26,10.028
	c-3.834,4.239-5.515,6.099-5.515,12.302c0,1.016-0.83,1.843-1.845,1.843h-0.047H44.497H33.712c-1.017,0-1.844-0.827-1.844-1.843
	c0-6.142-1.713-8.022-5.527-12.194l-0.007-0.006v0.006c-2.154-2.355-4.922-5.394-8.391-10.136c-2.019-2.758-3.619-5.849-4.699-9.163
	c-1.042-3.204-1.61-6.625-1.61-10.163c0-4.428,0.89-8.668,2.489-12.535l0.031-0.077c1.672-3.99,4.096-7.586,7.083-10.57
	c3.011-3.01,6.626-5.445,10.649-7.109V21.53c3.866-1.604,8.104-2.494,12.534-2.494c4.421,0,8.656,0.889,12.53,2.494
	C60.974,23.197,64.596,25.635,67.606,28.645 M73.522,51.826c0-8.034-3.257-15.31-8.527-20.574c-2.692-2.697-5.896-4.861-9.442-6.33
	c-3.416-1.411-7.177-2.196-11.132-2.196c-3.95,0-7.712,0.785-11.128,2.196h-0.004c-3.549,1.469-6.748,3.633-9.441,6.33
	c-2.667,2.664-4.822,5.84-6.287,9.352l-0.04,0.096c-1.414,3.415-2.198,7.175-2.198,11.126c0,3.156,0.504,6.195,1.426,9.03
	c0.957,2.941,2.377,5.684,4.159,8.122c3.328,4.555,6.038,7.524,8.146,9.834h-0.002c4.097,4.486,6.14,6.723,6.459,12.826h8.987h8.991
	c0.312-6.143,2.313-8.364,6.432-12.919c2.059-2.276,4.706-5.205,8.017-9.741c1.783-2.438,3.2-5.178,4.159-8.122
	C73.019,58.022,73.522,54.988,73.522,51.826"/>
<path fill-rule="evenodd" clip-rule="evenodd" fill="#F9B926" d="M38.471,117.938c-1.014,0-1.844-0.829-1.844-1.845
	s0.83-1.845,1.844-1.845h11.9c1.016,0,1.845,0.829,1.845,1.845s-0.829,1.845-1.845,1.845H38.471z"/>
<path fill-rule="evenodd" clip-rule="evenodd" fill="#F9B926" d="M67.029,15.529c-0.503,0.878-1.627,1.18-2.505,0.68
	c-0.877-0.508-1.177-1.632-0.675-2.509l3.57-6.183c0.502-0.877,1.627-1.182,2.503-0.676c0.879,0.501,1.181,1.627,0.681,2.508
	L67.029,15.529z"/>
<path fill-rule="evenodd" clip-rule="evenodd" fill="#F9B926" d="M24.995,13.7c0.5,0.877,0.198,2.001-0.681,2.509
	c-0.875,0.501-1.998,0.198-2.503-0.68l-3.569-6.18c-0.502-0.881-0.199-2.007,0.676-2.508c0.874-0.506,2.004-0.201,2.508,0.676
	L24.995,13.7z"/>
<path fill-rule="evenodd" clip-rule="evenodd" fill="#F9B926" d="M8.933,28.411c0.878,0.502,1.181,1.628,0.677,2.504
	c-0.502,0.88-1.629,1.18-2.506,0.679l-6.185-3.57c-0.878-0.507-1.177-1.632-0.677-2.507c0.502-0.878,1.627-1.176,2.505-0.676
	L8.933,28.411z"/>
<path fill-rule="evenodd" clip-rule="evenodd" fill="#F9B926" d="M81.738,31.594c-0.881,0.501-2.005,0.2-2.505-0.68
	c-0.501-0.875-0.2-2.001,0.681-2.503l6.18-3.571c0.878-0.5,2.002-0.201,2.507,0.677c0.5,0.875,0.202,2-0.679,2.507L81.738,31.594z"
	/>
<path fill-rule="evenodd" clip-rule="evenodd" fill="#F9B926" d="M25.275,59.11c0.395,0.937-0.046,2.011-0.979,2.404
	c-0.931,0.391-2.01-0.044-2.401-0.983c-0.627-1.48-1.113-3.044-1.437-4.654c-0.321-1.595-0.491-3.226-0.491-4.86
	c0-1.012,0.823-1.841,1.842-1.841c1.02,0,1.842,0.829,1.842,1.841c0,1.443,0.145,2.832,0.405,4.141
	C24.33,56.525,24.747,57.855,25.275,59.11 M25.275,42.927c-0.391,0.931-1.469,1.372-2.402,0.979
	c-0.936-0.391-1.372-1.469-0.979-2.404c0.617-1.462,1.371-2.847,2.235-4.137l0.007-0.002H24.13c0.891-1.314,1.896-2.54,2.999-3.635
	c1.09-1.093,2.311-2.099,3.637-2.995l-0.002-0.003c1.278-0.856,2.67-1.612,4.145-2.238c1.477-0.626,3.039-1.113,4.656-1.436
	c1.592-0.323,3.222-0.491,4.856-0.491c1.017,0,1.847,0.824,1.847,1.84c0,1.018-0.83,1.845-1.847,1.845
	c-1.444,0-2.828,0.143-4.142,0.405c-1.367,0.275-2.693,0.691-3.946,1.218c-1.216,0.513-2.396,1.158-3.51,1.91h-0.005
	c-1.092,0.73-2.124,1.592-3.083,2.549c-0.944,0.948-1.808,1.99-2.55,3.089v-0.004C26.438,40.529,25.793,41.703,25.275,42.927"/>
</svg>
